/vscmnt/brussel_pixiu_data/_data_brussel/112/vsc11236/PredSimResults/SUBJ10_Dhondt2024_3seg/weighted/worker_04.mot
version=1
nRows=4
nColumns=124
inDegrees=yes
endheader
                time	         pelvis_tilt	         pelvis_list	     pelvis_rotation	           pelvis_tx	           pelvis_ty	           pelvis_tz	       hip_flexion_r	     hip_adduction_r	      hip_rotation_r	        knee_angle_r	       ankle_angle_r	    subtalar_angle_r	         mtp_angle_r	       hip_flexion_l	     hip_adduction_l	      hip_rotation_l	        knee_angle_l	       ankle_angle_l	    subtalar_angle_l	         mtp_angle_l	    lumbar_extension	      lumbar_bending	     lumbar_rotation	          arm_flex_r	           arm_add_r	           arm_rot_r	        elbow_flex_r	          arm_flex_l	           arm_add_l	           arm_rot_l	        elbow_flex_l	glut_med1_r/activation	glut_med2_r/activation	glut_med3_r/activation	glut_min1_r/activation	glut_min2_r/activation	glut_min3_r/activation	semimem_r/activation	semiten_r/activation	bifemlh_r/activation	bifemsh_r/activation	    sar_r/activation	add_long_r/activation	add_brev_r/activation	add_mag1_r/activation	add_mag2_r/activation	add_mag3_r/activation	    tfl_r/activation	   pect_r/activation	   grac_r/activation	glut_max1_r/activation	glut_max2_r/activation	glut_max3_r/activation	iliacus_r/activation	  psoas_r/activation	quad_fem_r/activation	    gem_r/activation	   peri_r/activation	rect_fem_r/activation	vas_med_r/activation	vas_int_r/activation	vas_lat_r/activation	med_gas_r/activation	lat_gas_r/activation	 soleus_r/activation	tib_post_r/activation	flex_dig_r/activation	flex_hal_r/activation	tib_ant_r/activation	per_brev_r/activation	per_long_r/activation	per_tert_r/activation	ext_dig_r/activation	ext_hal_r/activation	glut_med1_l/activation	glut_med2_l/activation	glut_med3_l/activation	glut_min1_l/activation	glut_min2_l/activation	glut_min3_l/activation	semimem_l/activation	semiten_l/activation	bifemlh_l/activation	bifemsh_l/activation	    sar_l/activation	add_long_l/activation	add_brev_l/activation	add_mag1_l/activation	add_mag2_l/activation	add_mag3_l/activation	    tfl_l/activation	   pect_l/activation	   grac_l/activation	glut_max1_l/activation	glut_max2_l/activation	glut_max3_l/activation	iliacus_l/activation	  psoas_l/activation	quad_fem_l/activation	    gem_l/activation	   peri_l/activation	rect_fem_l/activation	vas_med_l/activation	vas_int_l/activation	vas_lat_l/activation	med_gas_l/activation	lat_gas_l/activation	 soleus_l/activation	tib_post_l/activation	flex_dig_l/activation	flex_hal_l/activation	tib_ant_l/activation	per_brev_l/activation	per_long_l/activation	per_tert_l/activation	ext_dig_l/activation	ext_hal_l/activation	 ercspn_r/activation	 ercspn_l/activation	 intobl_r/activation	 intobl_l/activation	 extobl_r/activation	 extobl_l/activation	
          0.00000000	         -2.92700904	          0.09545759	          2.13346697	          0.00000000	          0.82253709	         -0.00181105	         29.34822795	          2.64640431	          5.09265841	        -13.62067427	          7.55504005	         -1.40035566	          0.23030291	        -16.05591840	          2.60849222	         10.48722376	         -3.99834195	          7.11899101	         10.50825769	         11.94506463	         -5.55093960	         -1.13011170	         -1.23208004	        -26.28151664	        -14.12176904	          4.67125186	         22.75060100	         26.10444282	        -13.45402903	         15.84903024	         51.68887090	          0.01969110	          0.01001009	          0.01000185	          0.01673513	          0.01594922	          0.01000543	          0.08814693	          0.01410165	          0.05018334	          0.01000118	          0.01900618	          0.11706163	          0.13712020	          0.13574718	          0.13149891	          0.09458316	          0.01000235	          0.02443753	          0.07140294	          0.01268675	          0.01409517	          0.05502021	          0.02358893	          0.02173122	          0.01791306	          0.01000540	          0.01000177	          0.01000120	          0.04001185	          0.04156799	          0.03379032	          0.01000058	          0.01000135	          0.01000037	          0.01014968	          0.01007589	          0.01003208	          0.24379375	          0.16628981	          0.11222826	          0.10389082	          0.27224164	          0.03337833	          0.23778684	          0.12534944	          0.06927369	          0.29906181	          0.27060891	          0.16795765	          0.01000824	          0.01000119	          0.01000115	          0.03671037	          0.10100996	          0.01000052	          0.01000064	          0.01000155	          0.01000555	          0.01000277	          0.37994080	          0.01000294	          0.01000364	          0.02300980	          0.01986444	          0.01001074	          0.22405695	          0.37652444	          0.01986890	          0.01987442	          0.06569899	          0.20684158	          0.01000240	          0.01000309	          0.01000256	          0.35413868	          0.38826496	          0.29296161	          0.24757316	          0.29686600	          0.36026267	          0.01557340	          0.01596955	          0.16366466	          0.01445064	          0.01459462	          0.01571026	          0.01604728	          0.01000006	          0.03390706	          0.01000013	          0.10439861	          0.01000015	
          0.01123626	         -2.92055615	         -0.10899060	          2.29511222	          0.01384573	          0.82199684	         -0.00156868	         28.80783101	          3.05241771	          5.12749252	        -12.98596334	          7.03939100	         -1.55699349	          0.23520573	        -16.14885485	          2.39376855	         10.35278975	         -5.54910062	          6.57052185	         10.86688681	         12.90838122	         -5.41569718	         -0.69937766	         -1.30150114	        -27.70233844	        -14.11069284	          4.50188616	         23.13611717	         26.31747855	        -13.45081056	         16.01873978	         53.17463282	          0.01658541	          0.01187957	          0.01000196	          0.01409690	          0.01409192	          0.01000646	          0.07425761	          0.01187782	          0.04226807	          0.01000231	          0.01600852	          0.09860417	          0.16926302	          0.11692183	          0.14659534	          0.09668492	          0.01000125	          0.02060537	          0.06014307	          0.01187279	          0.01187315	          0.06094897	          0.01986830	          0.01830362	          0.01508784	          0.01000360	          0.01000116	          0.01000024	          0.07535146	          0.07731705	          0.06372251	          0.01000344	          0.01000233	          0.01187262	          0.01000068	          0.01000179	          0.01000356	          0.28296630	          0.19592368	          0.11861594	          0.10021645	          0.29315338	          0.02811390	          0.23613480	          0.10557787	          0.05834703	          0.27469176	          0.22792580	          0.14146546	          0.01186637	          0.01186774	          0.01187172	          0.03092006	          0.08507832	          0.01000039	          0.01000062	          0.01000166	          0.01000666	          0.01000527	          0.32001318	          0.01000187	          0.01000336	          0.01938185	          0.01673311	          0.01185384	          0.19501436	          0.33705488	          0.01673551	          0.01674046	          0.05533620	          0.19631675	          0.01000139	          0.01000174	          0.01000142	          0.32071616	          0.35618106	          0.27917441	          0.23930487	          0.29785491	          0.35500968	          0.01311698	          0.01358326	          0.17055710	          0.01217137	          0.01229259	          0.01323232	          0.01351620	          0.01000002	          0.02855886	          0.01000050	          0.08793161	          0.01000171	
          0.02247253	         -2.90985286	         -0.31464958	          2.44622194	          0.02802563	          0.82150035	         -0.00131231	         28.19816582	          3.47422090	          5.18170596	        -12.80120085	          6.31362373	         -1.69528263	          0.23990629	        -16.14712577	          2.18746254	         10.21607423	         -7.28437179	          5.84612266	         11.22182921	         13.92314436	         -5.25999202	         -0.26029173	         -1.36655269	        -28.95077110	        -14.07532615	          4.44103291	         23.22494982	         26.37297404	        -13.45027237	         16.10887204	         54.55980355	          0.01396943	          0.01000750	          0.01000033	          0.01187386	          0.01187289	          0.01000561	          0.06254491	          0.01000443	          0.03560115	          0.01000030	          0.01348447	          0.08305856	          0.16674486	          0.16967097	          0.14324607	          0.08239810	          0.01000425	          0.02831136	          0.05065730	          0.01000080	          0.01000061	          0.05133605	          0.01673635	          0.01673497	          0.13447277	          0.01000185	          0.01000102	          0.01409774	          0.11179429	          0.09380050	          0.08529258	          0.01000002	          0.01000006	          0.01000001	          0.01000010	          0.01000080	          0.01000046	          0.28881773	          0.16777732	          0.10879050	          0.13957502	          0.31580944	          0.04262455	          0.27637887	          0.08892487	          0.04914384	          0.25472737	          0.19197483	          0.11915188	          0.01000273	          0.01000045	          0.01000038	          0.02604305	          0.07165925	          0.03381684	          0.01000137	          0.01000195	          0.01000455	          0.01000100	          0.26953714	          0.06474828	          0.01188991	          0.01632537	          0.01409447	          0.01000278	          0.16425563	          0.28389063	          0.01409602	          0.01410039	          0.04660794	          0.18351876	          0.01000067	          0.01000086	          0.01000073	          0.27012901	          0.30188329	          0.26151109	          0.22998771	          0.26925989	          0.33490445	          0.01104804	          0.01144162	          0.17052929	          0.01025166	          0.01035369	          0.01114530	          0.01138443	          0.01337820	          0.02405422	          0.02971324	          0.07406196	          0.01000026	
          0.03370879	         -2.89482208	         -0.52925782	          2.58625887	          0.04248022	          0.82102556	         -0.00106302	         27.54798534	          3.87673940	          5.26867474	        -13.15706763	          5.35346729	         -1.81432006	          0.24173783	        -16.04541874	          1.98317793	         10.07661396	         -9.20081950	          4.93664256	         11.57396230	         14.96295663	         -5.08918226	          0.19247290	         -1.42299594	        -29.99675278	        -14.02510788	          4.55000892	         22.95920822	         26.28139437	        -13.45241490	         16.14079978	         55.84825092	          0.01176604	          0.01000023	          0.01133655	          0.01000112	          0.01000059	          0.01000047	          0.05267974	          0.06687711	          0.02998618	          0.01878773	          0.01391929	          0.06995797	          0.14044715	          0.14291093	          0.12065279	          0.06940152	          0.01000097	          0.02384880	          0.09645598	          0.01000683	          0.02095975	          0.04323933	          0.01409672	          0.01409631	          0.17037941	          0.02344939	          0.01007257	          0.01187416	          0.09416082	          0.07900524	          0.07183926	          0.01673616	          0.01674755	          0.01409688	          0.01379978	          0.01187660	          0.01586010	          0.24326190	          0.16247659	          0.11215896	          0.11755964	          0.32468802	          0.03590139	          0.23278543	          0.07489857	          0.04139229	          0.21455013	          0.16169436	          0.10035784	          0.01119249	          0.01000599	          0.01000510	          0.02193529	          0.06035648	          0.06506746	          0.01187213	          0.01037715	          0.01015760	          0.01185223	          0.22702266	          0.06039199	          0.01001753	          0.01375093	          0.01187220	          0.01000764	          0.13834737	          0.23911209	          0.01187275	          0.01187661	          0.03925639	          0.15785936	          0.01897603	          0.01176517	          0.01187219	          0.22752094	          0.25426661	          0.23272713	          0.20658393	          0.22678981	          0.28208030	          0.01000005	          0.01000406	          0.17911920	          0.01000024	          0.01000008	          0.01000034	          0.01000002	          0.02190283	          0.02026011	          0.03038112	          0.06238001	          0.01409782	
